<svg xmlns="http://www.w3.org/2000/svg" viewBox="0 0 512 512" fill="url(#gradient)">
  <defs>
    <linearGradient id="gradient" x1="0" y1="0" x2="0" y2="1">
      <stop offset="0%" stop-color="#5eaefd"/>
      <stop offset="100%" stop-color="#a936e4"/>
    </linearGradient>
  </defs>
  <path d="M392 24H96C43 24 0 67 0 120v192c0 49 36 90 83 97v67a17 17 0 0 0 29 13l47-42a144 144 0 0 1 95-36h160c53 0 96-43 96-96V144a17 17 0 0 0-34 0v168c0 34-28 62-62 62H254c-42 0-83 15-114 43l-27 24v-38a17 17 0 0 0-17-17c-34 0-62-28-62-62V120c0-34 28-62 62-62h296a17 17 0 0 0 0-34ZM114 167h112a17 17 0 0 0 0-34H114a17 17 0 0 0 0 34Zm0 64h112a17 17 0 0 0 0-34H114a17 17 0 0 0 0 34Zm0 64h192a17 17 0 0 0 0-34H114a17 17 0 0 0 0 34Zm323-92-9 27a17 17 0 0 1-11 11l-27 9-9 27a17 17 0 0 1-32 0l-9-27-27-9a17 17 0 0 1 0-32l27-9 9-27a17 17 0 0 1 32 0l9 27 27 9a17 17 0 0 1 0 32Zm67-141-18-6-6-18a17 17 0 0 0-32 0l-6 18-18 6a17 17 0 0 0 0 32l18 6 6 18a17 17 0 0 0 32 0l6-18 18-6a17 17 0 0 0 0-32Z"/>
</svg>
